<svg xmlns="http://www.w3.org/2000/svg" viewBox="0 0 48 48" fill="none">
  <defs>
    <linearGradient id="circuitGrad" x1="0%" y1="0%" x2="100%" y2="100%">
      <stop offset="0%" style="stop-color:#3B82F6;stop-opacity:1" />
      <stop offset="100%" style="stop-color:#60A5FA;stop-opacity:1" />
    </linearGradient>
  </defs>

  <!-- Circuit C icon -->
  <g transform="translate(4, 4)">
    <!-- Outer circuit ring - the C shape -->
    <path d="M20 0 C8.954 0 0 8.954 0 20 C0 31.046 8.954 40 20 40 C26 40 31.2 37.5 35 33.5"
          stroke="url(#circuitGrad)" stroke-width="4" fill="none" stroke-linecap="round"/>

    <!-- Circuit nodes at endpoints -->
    <circle cx="20" cy="0" r="4" fill="#3B82F6"/>
    <circle cx="35" cy="33.5" r="4" fill="#60A5FA"/>

    <!-- Side node -->
    <circle cx="0" cy="20" r="3" fill="#3B82F6"/>

    <!-- Inner circuit traces -->
    <path d="M20 10 L20 16" stroke="#3B82F6" stroke-width="2.5" stroke-linecap="round"/>
    <path d="M10 20 L16 20" stroke="#3B82F6" stroke-width="2.5" stroke-linecap="round"/>
    <path d="M24 24 L28 28" stroke="#60A5FA" stroke-width="2.5" stroke-linecap="round"/>

    <!-- Center processor node -->
    <rect x="16" y="16" width="8" height="8" rx="1.5" fill="none" stroke="url(#circuitGrad)" stroke-width="2"/>
    <circle cx="20" cy="20" r="2" fill="#60A5FA"/>

    <!-- Corner trace dots -->
    <circle cx="20" cy="10" r="2" fill="#60A5FA"/>
    <circle cx="10" cy="20" r="2" fill="#60A5FA"/>
    <circle cx="28" cy="28" r="2" fill="#60A5FA"/>
  </g>
</svg>
